<?xml version="1.0" encoding="UTF-8" standalone="no"?>
<svg
   xmlns:dc="http://purl.org/dc/elements/1.1/"
   xmlns:cc="http://creativecommons.org/ns#"
   xmlns:rdf="http://www.w3.org/1999/02/22-rdf-syntax-ns#"
   xmlns:svg="http://www.w3.org/2000/svg"
   xmlns="http://www.w3.org/2000/svg"
   xmlns:sodipodi="http://sodipodi.sourceforge.net/DTD/sodipodi-0.dtd"
   xmlns:inkscape="http://www.inkscape.org/namespaces/inkscape"
   version="1.0"
   width="351.000000pt"
   height="252.000000pt"
   viewBox="0 0 351.000000 252.000000"
   preserveAspectRatio="xMidYMid meet"
   id="svg24"
   sodipodi:docname="about.svg"
   inkscape:version="0.92.4 (5da689c313, 2019-01-14)">
  <defs
     id="defs28" />
  <sodipodi:namedview
     pagecolor="#ffffff"
     bordercolor="#666666"
     borderopacity="1"
     objecttolerance="10"
     gridtolerance="10"
     guidetolerance="10"
     inkscape:pageopacity="0"
     inkscape:pageshadow="2"
     inkscape:window-width="3840"
     inkscape:window-height="2066"
     id="namedview26"
     showgrid="false"
     inkscape:zoom="5.485119"
     inkscape:cx="197.17309"
     inkscape:cy="168"
     inkscape:window-x="-11"
     inkscape:window-y="-11"
     inkscape:window-maximized="1"
     inkscape:current-layer="svg24" />
  <metadata
     id="metadata10">
Created by potrace 1.15, written by Peter Selinger 2001-2017
<rdf:RDF>
  <cc:Work
     rdf:about="">
    <dc:format>image/svg+xml</dc:format>
    <dc:type
       rdf:resource="http://purl.org/dc/dcmitype/StillImage" />
  </cc:Work>
</rdf:RDF>
</metadata>
  <g
     transform="matrix(0.05,0,0,-0.05,87.75,189)"
     id="g22"
     style="fill:#000000;stroke:none">
    <path
       d="M 0,1260 V 0 H 1755 3510 V 1260 2520 H 1755 0 Z m 1813,691 c 178,-46 310,-161 362,-315 22,-63 9,-62 135,-18 41,14 130,54 197,87 l 122,61 -104,-106 c -97,-99 -183,-196 -268,-301 l -37,-46 v -299 c 1,-271 7,-395 26,-469 l 6,-25 -223,2 -224,3 -9,57 -9,56 -56,-38 c -231,-157 -550,-69 -671,185 -28,58 -34,83 -38,162 -8,147 32,258 128,354 95,96 170,124 370,140 74,6 153,14 175,18 37,7 40,9 39,39 -3,47 -29,81 -82,105 -99,44 -314,18 -463,-57 l -66,-33 -43,151 c -24,83 -45,156 -47,163 -11,30 213,113 357,132 47,6 96,13 110,15 55,10 239,-4 313,-23 z"
       id="path12"
       inkscape:connector-curvature="0" />
    <path
       d="m 1470,1914 c -103,-13 -281,-60 -342,-90 -30,-15 -30,-8 13,-155 l 19,-66 94,33 c 162,57 341,62 435,14 51,-26 89,-72 102,-125 11,-42 12,-44 43,-38 28,5 229,54 283,69 l 22,6 -18,49 c -77,202 -232,295 -501,304 -63,2 -131,1 -150,-1 z"
       id="path14"
       inkscape:connector-curvature="0" />
    <path
       d="m 2430,1637 c -159,-90 -280,-139 -439,-178 -177,-44 -391,-79 -483,-79 -73,0 -163,-21 -226,-52 -58,-30 -137,-116 -170,-185 -24,-52 -27,-70 -27,-163 0,-97 2,-110 31,-170 121,-253 451,-306 648,-104 24,25 55,69 68,97 77,168 152,292 288,476 75,101 189,220 330,344 36,31 63,56 60,56 -3,0 -39,-19 -80,-42 z m -864,-512 c 47,-28 84,-90 84,-143 0,-104 -102,-187 -204,-168 -86,16 -139,87 -134,178 9,130 141,199 254,133 z"
       id="path16"
       inkscape:connector-curvature="0" />
    <path
       d="m 1404,1056 c -27,-27 -34,-42 -34,-74 0,-81 77,-130 153,-99 59,25 82,89 52,147 -21,40 -53,60 -98,60 -31,0 -46,-7 -73,-34 z"
       id="path18"
       inkscape:connector-curvature="0" />
    <path
       d="m 2074,1108 c -95,-144 -135,-213 -163,-285 -11,-29 -32,-71 -47,-92 -22,-33 -24,-46 -19,-83 4,-25 10,-50 14,-57 5,-8 51,-11 162,-9 131,3 153,5 150,18 -2,8 -7,153 -10,323 l -6,307 z"
       id="path20"
       inkscape:connector-curvature="0" />
  </g>
  <path
     style="fill:#ff0000;fill-opacity:1;stroke-width:0.0683668"
     d="m 178.20552,114.69313 c -0.31149,-0.12578 -0.44026,-0.40902 -0.87466,-1.92378 -0.34972,-1.21949 -0.6896,-2.00142 -1.22187,-2.81104 -1.65064,-2.51074 -4.09234,-4.01245 -7.6371,-4.69703 -2.56177,-0.49473 -6.05602,-0.54578 -9.29788,-0.13584 -3.74823,0.47397 -5.84988,1.0228 -11.3593,2.96638 -1.7549,0.61908 -2.01288,0.69363 -2.05803,0.59465 -0.0501,-0.10979 -0.83325,-2.7902 -1.86444,-6.38101 -0.82244,-2.863915 -0.91816,-3.592083 -0.52477,-3.99194 0.21087,-0.214337 1.13645,-0.665274 2.23573,-1.089239 3.56655,-1.375526 10.53755,-3.146833 14.93815,-3.795729 1.88606,-0.278112 7.92806,-0.256904 11.24633,0.03948 7.50672,0.670481 12.93162,2.850123 16.82021,6.758108 1.86128,1.87056 3.39879,4.15126 4.52102,6.70636 0.52435,1.19386 1.53015,3.88629 1.47171,3.93963 -0.17705,0.16162 -12.24485,3.14522 -14.88239,3.67946 -1.07861,0.21848 -1.27636,0.23698 -1.51271,0.14154 z"
     id="path30"
     inkscape:connector-curvature="0" />
  <path
     style="fill:#ff0000;fill-opacity:1;stroke-width:0.0683668"
     d="m 160.36518,159.8078 c -1.75897,-0.0939 -3.38725,-0.40565 -5.12226,-0.98069 -2.97096,-0.98467 -5.45373,-2.51326 -7.66276,-4.7178 -1.74146,-1.73792 -2.75983,-3.17928 -3.9635,-5.6098 -0.82875,-1.67345 -1.18815,-2.6292 -1.36259,-3.62344 -0.16995,-0.96866 -0.25944,-3.46069 -0.21411,-5.96226 0.0666,-3.67777 0.2169,-4.53321 1.16876,-6.65388 1.50054,-3.34306 5.18519,-7.56466 8.14824,-9.33562 1.79842,-1.0749 5.01013,-2.08843 8.22725,-2.59633 1.00023,-0.15791 1.61337,-0.20251 5.09333,-0.37055 4.87837,-0.23557 14.04944,-1.79278 22.15084,-3.76112 8.15309,-1.9809 13.88899,-4.27024 22.06148,-8.80526 2.5936,-1.43923 4.21952,-2.29909 4.26375,-2.25486 0.0409,0.0409 -0.97535,0.97529 -3.09431,2.8453 -2.90935,2.56754 -4.45554,4.02283 -7.34099,6.90936 -5.23738,5.23935 -7.49178,7.9223 -11.92554,14.19249 -4.39615,6.21702 -7.63568,11.66179 -10.39294,17.46772 -1.37716,2.89987 -1.50733,3.14849 -2.1749,4.15415 -1.69041,2.54651 -3.33828,4.20927 -5.78776,5.84006 -0.99536,0.66268 -2.97521,1.67467 -4.04248,2.0663 -2.54845,0.93513 -5.28468,1.34277 -8.02951,1.19623 z m 2.80829,-11.51183 c 1.76732,-0.37008 3.19191,-1.14615 4.51952,-2.46211 1.33046,-1.31877 2.12762,-2.78015 2.45343,-4.4977 0.12985,-0.68451 0.13275,-2.00123 0.006,-2.66435 -0.47464,-2.48066 -2.26886,-4.9702 -4.41508,-6.12601 -0.72814,-0.39213 -1.62845,-0.72416 -2.46121,-0.9077 -0.92881,-0.20471 -2.46743,-0.2216 -3.33988,-0.0367 -3.38221,0.7169 -5.78279,3.20595 -6.48119,6.72004 -0.16581,0.83428 -0.16581,2.56684 0,3.40111 0.36168,1.81982 1.07865,3.2106 2.26119,4.38621 1.19883,1.19181 2.7389,1.95511 4.55175,2.25597 0.73129,0.12137 2.15891,0.0876 2.90559,-0.0688 z"
     id="path32"
     inkscape:connector-curvature="0" />
  <path
     style="fill:#ff0000;fill-opacity:1;stroke-width:0.0683668"
     d="m 182.82892,159.83541 c -0.72504,-0.034 -1.56874,-0.15755 -1.85349,-0.27149 -0.25226,-0.10093 -0.27499,-0.13548 -0.43627,-0.66304 -0.22452,-0.73443 -0.49058,-2.09856 -0.57524,-2.94939 -0.12165,-1.22263 0.0513,-1.93555 0.73407,-3.02523 0.19437,-0.31021 0.51015,-0.81434 0.70175,-1.12028 0.53696,-0.85741 1.36956,-2.57036 1.97747,-4.06835 1.24852,-3.07655 2.77276,-5.84541 5.97859,-10.86047 1.16791,-1.82704 6.06578,-9.20496 6.09281,-9.17793 0.0117,0.0117 0.0996,4.05055 0.19535,8.97512 0.2737,14.08522 0.48463,21.62213 0.62487,22.32868 0.10524,0.53019 -0.81753,0.67035 -5.33845,0.81086 -1.96884,0.0612 -6.97134,0.0745 -8.10146,0.0215 z"
     id="path34"
     inkscape:connector-curvature="0" />
</svg>
